<svg width="116" height="57" viewBox="0 0 116 57" fill="none" xmlns="http://www.w3.org/2000/svg">
<g filter="url(#filter0_d_41_100)">
<path d="M26.76 14.488C26.76 16.28 26.2267 17.9867 25.16 19.608C24.0933 21.1867 22.728 22.4453 21.064 23.384C23.88 23.9387 26.0347 25.2187 27.528 27.224C29.064 29.2293 29.832 31.704 29.832 34.648C29.832 37.5067 29.0427 39.9173 27.464 41.88C25.8853 43.8 23.7733 45.2507 21.128 46.232C18.5253 47.1707 15.688 47.64 12.616 47.64C9.032 47.64 5.10667 47.32 0.84 46.68V5.016C5.87467 4.67466 9.88533 4.504 12.872 4.504C17.224 4.504 20.616 5.25067 23.048 6.744C25.5227 8.23733 26.76 10.8187 26.76 14.488ZM8.328 22.104C9.30933 22.232 10.3973 22.296 11.592 22.296C14.1093 22.296 15.9867 21.72 17.224 20.568C18.4613 19.416 19.08 17.6027 19.08 15.128C19.08 11.032 16.8613 8.984 12.424 8.984C11.1013 8.984 9.736 9.09066 8.328 9.304V22.104ZM8.328 42.776C9.864 43.032 11.2933 43.16 12.616 43.16C15.6027 43.16 17.8853 42.4773 19.464 41.112C21.0853 39.7467 21.896 37.656 21.896 34.84C21.896 31.64 21.0213 29.4853 19.272 28.376C17.5653 27.224 14.8773 26.648 11.208 26.648C10.056 26.648 9.096 26.712 8.328 26.84V42.776ZM47.1785 18.008C45.3438 18.008 44.1492 19.2453 43.5945 21.72C43.0825 24.152 42.8265 27.0747 42.8265 30.488V47H35.7865V14.36L41.6745 13.592L41.9945 19.352C42.5918 17.432 43.6372 15.9173 45.1305 14.808C46.6238 13.656 48.3518 13.08 50.3145 13.08C52.4478 13.08 54.1332 13.6987 55.3705 14.936C56.6505 16.1733 57.2905 17.8587 57.2905 19.992C57.2905 23.448 55.6265 25.176 52.2985 25.176C51.1892 25.176 50.3358 24.9413 49.7385 24.472C50.0372 23.3627 50.1865 22.4027 50.1865 21.592C50.1865 19.2027 49.1838 18.008 47.1785 18.008ZM64.6205 0.919998C66.0285 0.919998 67.1592 1.26133 68.0125 1.944C68.9085 2.62666 69.3565 3.608 69.3565 4.888C69.3565 6.21066 68.8872 7.23466 67.9485 7.96C67.0525 8.64266 65.8792 8.984 64.4285 8.984C63.0205 8.984 61.8898 8.64266 61.0365 7.96C60.1832 7.27733 59.7565 6.296 59.7565 5.016C59.7565 3.69333 60.2045 2.69066 61.1005 2.008C62.0392 1.28267 63.2125 0.919998 64.6205 0.919998ZM67.9485 41.752C67.9485 43.8427 68.6098 45.2507 69.9325 45.976C69.5912 46.616 69.0365 47.1067 68.2685 47.448C67.5005 47.7893 66.6685 47.96 65.7725 47.96C64.1512 47.96 62.9352 47.4907 62.1245 46.552C61.3138 45.6133 60.9085 44.2907 60.9085 42.584V14.36H67.9485V41.752ZM97.2695 37.976C98.2508 38.4453 98.7415 39.3627 98.7415 40.728C98.7415 42.264 98.2295 43.6293 97.2055 44.824C96.1815 45.976 94.8588 46.8507 93.2375 47.448C91.6162 48.088 89.9735 48.408 88.3095 48.408C83.6162 48.408 80.1388 46.8933 77.8775 43.864C75.6162 40.792 74.4855 36.6747 74.4855 31.512C74.4855 26.008 75.7015 21.5707 78.1335 18.2C80.6082 14.7867 84.3415 13.08 89.3335 13.08C92.4908 13.08 95.0295 13.912 96.9495 15.576C98.8695 17.1973 99.8295 19.5013 99.8295 22.488C99.8295 26.2 98.5282 28.8027 95.9255 30.296C93.3655 31.7893 89.8668 32.536 85.4295 32.536C84.1922 32.536 83.0188 32.4933 81.9095 32.408C82.0375 35.7787 82.5922 38.4667 83.5735 40.472C84.5975 42.4773 86.3895 43.48 88.9495 43.48C90.8268 43.48 92.4695 43.0107 93.8775 42.072C95.3282 41.0907 96.4588 39.7253 97.2695 37.976ZM88.3095 16.728C86.0055 16.728 84.3842 17.944 83.4455 20.376C82.5068 22.7653 81.9948 25.7093 81.9095 29.208C83.1895 29.2933 84.1282 29.336 84.7255 29.336C90.1015 29.336 92.7895 27.1813 92.7895 22.872C92.7895 21.1227 92.4055 19.672 91.6375 18.52C90.9122 17.3253 89.8028 16.728 88.3095 16.728ZM113.142 1.432V41.752C113.142 43.8427 113.803 45.2507 115.126 45.976C114.785 46.616 114.209 47.1067 113.398 47.448C112.63 47.7893 111.819 47.96 110.966 47.96C109.345 47.96 108.129 47.4907 107.318 46.552C106.507 45.6133 106.102 44.2907 106.102 42.584V2.2L113.142 1.432Z" fill="#D9D9D9"/>
</g>
<defs>
<filter id="filter0_d_41_100" x="0.840088" y="0.920044" width="114.286" height="55.4879" filterUnits="userSpaceOnUse" color-interpolation-filters="sRGB">
<feFlood flood-opacity="0" result="BackgroundImageFix"/>
<feColorMatrix in="SourceAlpha" type="matrix" values="0 0 0 0 0 0 0 0 0 0 0 0 0 0 0 0 0 0 127 0" result="hardAlpha"/>
<feOffset dy="8"/>
<feComposite in2="hardAlpha" operator="out"/>
<feColorMatrix type="matrix" values="0 0 0 0 0 0 0 0 0 0 0 0 0 0 0 0 0 0 0.25 0"/>
<feBlend mode="normal" in2="BackgroundImageFix" result="effect1_dropShadow_41_100"/>
<feBlend mode="normal" in="SourceGraphic" in2="effect1_dropShadow_41_100" result="shape"/>
</filter>
</defs>
</svg>
