<svg width="121" height="98" viewBox="0 0 121 98" fill="none" xmlns="http://www.w3.org/2000/svg">
<g filter="url(#filter0_d_41_99)">
<path d="M29.76 32.488C29.76 34.28 29.2267 35.9867 28.16 37.608C27.0933 39.1867 25.728 40.4453 24.064 41.384C26.88 41.9387 29.0347 43.2187 30.528 45.224C32.064 47.2293 32.832 49.704 32.832 52.648C32.832 55.5067 32.0427 57.9173 30.464 59.88C28.8853 61.8 26.7733 63.2507 24.128 64.232C21.5253 65.1707 18.688 65.64 15.616 65.64C12.032 65.64 8.10667 65.32 3.84 64.68V23.016C8.87467 22.6747 12.8853 22.504 15.872 22.504C20.224 22.504 23.616 23.2507 26.048 24.744C28.5227 26.2373 29.76 28.8187 29.76 32.488ZM11.328 40.104C12.3093 40.232 13.3973 40.296 14.592 40.296C17.1093 40.296 18.9867 39.72 20.224 38.568C21.4613 37.416 22.08 35.6027 22.08 33.128C22.08 29.032 19.8613 26.984 15.424 26.984C14.1013 26.984 12.736 27.0907 11.328 27.304V40.104ZM11.328 60.776C12.864 61.032 14.2933 61.16 15.616 61.16C18.6027 61.16 20.8853 60.4773 22.464 59.112C24.0853 57.7467 24.896 55.656 24.896 52.84C24.896 49.64 24.0213 47.4853 22.272 46.376C20.5653 45.224 17.8773 44.648 14.208 44.648C13.056 44.648 12.096 44.712 11.328 44.84V60.776ZM50.1785 36.008C48.3438 36.008 47.1492 37.2453 46.5945 39.72C46.0825 42.152 45.8265 45.0747 45.8265 48.488V65H38.7865V32.36L44.6745 31.592L44.9945 37.352C45.5918 35.432 46.6372 33.9173 48.1305 32.808C49.6238 31.656 51.3518 31.08 53.3145 31.08C55.4478 31.08 57.1332 31.6987 58.3705 32.936C59.6505 34.1733 60.2905 35.8587 60.2905 37.992C60.2905 41.448 58.6265 43.176 55.2985 43.176C54.1892 43.176 53.3358 42.9413 52.7385 42.472C53.0372 41.3627 53.1865 40.4027 53.1865 39.592C53.1865 37.2027 52.1838 36.008 50.1785 36.008ZM67.6205 18.92C69.0285 18.92 70.1592 19.2613 71.0125 19.944C71.9085 20.6267 72.3565 21.608 72.3565 22.888C72.3565 24.2107 71.8872 25.2347 70.9485 25.96C70.0525 26.6427 68.8792 26.984 67.4285 26.984C66.0205 26.984 64.8898 26.6427 64.0365 25.96C63.1832 25.2773 62.7565 24.296 62.7565 23.016C62.7565 21.6933 63.2045 20.6907 64.1005 20.008C65.0392 19.2827 66.2125 18.92 67.6205 18.92ZM70.9485 59.752C70.9485 61.8427 71.6098 63.2507 72.9325 63.976C72.5912 64.616 72.0365 65.1067 71.2685 65.448C70.5005 65.7893 69.6685 65.96 68.7725 65.96C67.1512 65.96 65.9352 65.4907 65.1245 64.552C64.3138 63.6133 63.9085 62.2907 63.9085 60.584V32.36H70.9485V59.752ZM100.27 55.976C101.251 56.4453 101.742 57.3627 101.742 58.728C101.742 60.264 101.23 61.6293 100.206 62.824C99.1815 63.976 97.8588 64.8507 96.2375 65.448C94.6162 66.088 92.9735 66.408 91.3095 66.408C86.6162 66.408 83.1388 64.8933 80.8775 61.864C78.6162 58.792 77.4855 54.6747 77.4855 49.512C77.4855 44.008 78.7015 39.5707 81.1335 36.2C83.6082 32.7867 87.3415 31.08 92.3335 31.08C95.4908 31.08 98.0295 31.912 99.9495 33.576C101.87 35.1973 102.83 37.5013 102.83 40.488C102.83 44.2 101.528 46.8027 98.9255 48.296C96.3655 49.7893 92.8668 50.536 88.4295 50.536C87.1922 50.536 86.0188 50.4933 84.9095 50.408C85.0375 53.7787 85.5922 56.4667 86.5735 58.472C87.5975 60.4773 89.3895 61.48 91.9495 61.48C93.8268 61.48 95.4695 61.0107 96.8775 60.072C98.3282 59.0907 99.4588 57.7253 100.27 55.976ZM91.3095 34.728C89.0055 34.728 87.3842 35.944 86.4455 38.376C85.5068 40.7653 84.9948 43.7093 84.9095 47.208C86.1895 47.2933 87.1282 47.336 87.7255 47.336C93.1015 47.336 95.7895 45.1813 95.7895 40.872C95.7895 39.1227 95.4055 37.672 94.6375 36.52C93.9122 35.3253 92.8028 34.728 91.3095 34.728ZM116.142 19.432V59.752C116.142 61.8427 116.803 63.2507 118.126 63.976C117.785 64.616 117.209 65.1067 116.398 65.448C115.63 65.7893 114.819 65.96 113.966 65.96C112.345 65.96 111.129 65.4907 110.318 64.552C109.507 63.6133 109.102 62.2907 109.102 60.584V20.2L116.142 19.432Z" fill="#D9D9D9"/>
</g>
<path d="M23.088 91H16.464C16.256 91 16.152 90.904 16.152 90.712V89.488C16.152 89.296 16.256 89.2 16.464 89.2H18.288V75.568H16.464C16.256 75.568 16.152 75.472 16.152 75.28V74.056C16.152 73.864 16.256 73.768 16.464 73.768H28.776C28.984 73.768 29.088 73.864 29.088 74.056V77.92C29.088 78.128 28.984 78.232 28.776 78.232H27.48C27.288 78.232 27.192 78.128 27.192 77.92V75.568H20.376V81.52H26.016C26.224 81.52 26.328 81.616 26.328 81.808V83.032C26.328 83.224 26.224 83.32 26.016 83.32H20.376V89.2H23.088C23.28 89.2 23.376 89.296 23.376 89.488V90.712C23.376 90.904 23.28 91 23.088 91ZM40.7741 91H38.6861C37.9981 91 37.6541 90.664 37.6541 89.992V88.768H37.6061C36.4381 90.384 34.8781 91.192 32.9261 91.192C31.7741 91.192 30.8301 90.896 30.0941 90.304C29.3581 89.696 28.9901 88.88 28.9901 87.856C28.9901 86.544 29.5581 85.584 30.6941 84.976C31.8461 84.352 33.4221 84.04 35.4221 84.04H37.4381V83.752C37.4381 81.752 36.3981 80.752 34.3181 80.752C33.3421 80.752 32.6381 80.848 32.2061 81.04C31.7741 81.216 31.4621 81.36 31.2701 81.472C31.0941 81.584 30.9581 81.672 30.8621 81.736C30.6221 81.928 30.4461 81.944 30.3341 81.784L29.6621 80.944C29.5501 80.816 29.5661 80.688 29.7101 80.56C29.9821 80.208 30.5421 79.864 31.3901 79.528C32.2381 79.192 33.2381 79.024 34.3901 79.024C37.7501 79.024 39.4301 80.624 39.4301 83.824V89.392H40.7741C40.9661 89.392 41.0621 89.488 41.0621 89.68V90.712C41.0621 90.904 40.9661 91 40.7741 91ZM37.4381 85.48H35.5421C34.6141 85.48 33.8461 85.528 33.2381 85.624C32.6301 85.72 32.1101 85.928 31.6781 86.248C31.2621 86.568 31.0541 87.008 31.0541 87.568C31.0541 88.128 31.2781 88.592 31.7261 88.96C32.1901 89.312 32.7901 89.488 33.5261 89.488C35.0781 89.488 36.3821 88.8 37.4381 87.424V85.48ZM48.1697 91.168C47.0977 91.168 46.2417 90.968 45.6017 90.568C44.9617 90.168 44.5617 89.792 44.4017 89.44H44.3537C44.3857 90.224 44.4017 90.64 44.4017 90.688C44.4017 90.896 44.2897 91 44.0657 91H43.2497C43.0417 91 42.9377 90.896 42.9377 90.688V87.088C42.9377 86.88 43.0417 86.776 43.2497 86.776H44.1857C44.4097 86.776 44.5217 86.88 44.5217 87.088V87.568C44.6817 88.048 45.0177 88.488 45.5297 88.888C46.1377 89.368 46.8977 89.608 47.8097 89.608C49.6017 89.608 50.4977 88.984 50.4977 87.736C50.4977 87.304 50.2497 86.96 49.7537 86.704C49.2577 86.432 48.6497 86.208 47.9297 86.032C47.2257 85.856 46.5217 85.656 45.8177 85.432C45.1137 85.208 44.5137 84.848 44.0177 84.352C43.5217 83.84 43.2737 83.2 43.2737 82.432C43.2737 81.392 43.6497 80.568 44.4017 79.96C45.1537 79.336 46.1137 79.024 47.2817 79.024C48.8657 79.024 50.0017 79.488 50.6897 80.416H50.7377C50.7057 79.84 50.6897 79.544 50.6897 79.528C50.6897 79.32 50.7937 79.216 51.0017 79.216H51.7697C51.9777 79.216 52.0817 79.32 52.0817 79.528V82.864C52.0817 83.072 51.9777 83.176 51.7697 83.176H50.8337C50.6097 83.176 50.4977 83.072 50.4977 82.864V82.528C50.4977 82.096 50.2417 81.672 49.7297 81.256C49.2337 80.824 48.5857 80.608 47.7857 80.608C46.9857 80.608 46.3617 80.776 45.9137 81.112C45.4657 81.448 45.2417 81.888 45.2417 82.432C45.2417 82.96 45.4897 83.376 45.9857 83.68C46.4977 83.968 47.1137 84.2 47.8337 84.376C48.5537 84.536 49.2737 84.72 49.9937 84.928C50.7137 85.136 51.3217 85.48 51.8177 85.96C52.3297 86.44 52.5857 87.104 52.5857 87.952C52.5857 88.8 52.2177 89.552 51.4817 90.208C50.7617 90.848 49.6577 91.168 48.1697 91.168ZM66.9534 91H64.6734C63.9854 91 63.6414 90.664 63.6414 89.992V83.68C63.6414 82.752 63.4174 82.032 62.9694 81.52C62.5214 81.008 61.8654 80.752 61.0014 80.752C60.3454 80.752 59.8414 80.856 59.4894 81.064C59.1534 81.256 58.8974 81.432 58.7214 81.592C58.5454 81.736 58.4014 81.88 58.2894 82.024C58.0974 82.28 57.9374 82.544 57.8094 82.816V89.392H59.0814C59.2894 89.392 59.3934 89.488 59.3934 89.68V90.712C59.3934 90.904 59.2894 91 59.0814 91H54.4974C54.2894 91 54.1854 90.904 54.1854 90.712V89.68C54.1854 89.488 54.2894 89.392 54.4974 89.392H55.8174V75.376H54.4974C54.2894 75.376 54.1854 75.28 54.1854 75.088V74.056C54.1854 73.864 54.2894 73.768 54.4974 73.768H57.5214C57.7134 73.768 57.8094 73.864 57.8094 74.056V79.408C57.8094 79.936 57.7774 80.424 57.7134 80.872H57.7614C58.5454 79.64 59.7934 79.024 61.5054 79.024C62.7854 79.024 63.7854 79.4 64.5054 80.152C65.2254 80.904 65.5934 81.92 65.6094 83.2V89.392H66.9534C67.1614 89.392 67.2654 89.488 67.2654 89.68V90.712C67.2654 90.904 67.1614 91 66.9534 91ZM73.8471 91H69.2631C69.0551 91 68.9511 90.904 68.9511 90.712V89.68C68.9511 89.488 69.0551 89.392 69.2631 89.392H70.5831V80.8H69.2631C69.0551 80.8 68.9511 80.704 68.9511 80.512V79.48C68.9511 79.288 69.0551 79.192 69.2631 79.192H72.2871C72.4791 79.192 72.5751 79.288 72.5751 79.48V89.392H73.8471C74.0551 89.392 74.1591 89.488 74.1591 89.68V90.712C74.1591 90.904 74.0551 91 73.8471 91ZM72.4791 75.64C72.7511 75.912 72.8871 76.232 72.8871 76.6C72.8871 76.968 72.7511 77.28 72.4791 77.536C72.2231 77.792 71.9111 77.92 71.5431 77.92C71.1751 77.92 70.8551 77.792 70.5831 77.536C70.3271 77.28 70.1991 76.968 70.1991 76.6C70.1991 76.232 70.3271 75.912 70.5831 75.64C70.8551 75.368 71.1751 75.232 71.5431 75.232C71.9111 75.232 72.2231 75.368 72.4791 75.64ZM85.9731 89.488C84.8531 90.608 83.4211 91.168 81.6771 91.168C79.9331 91.168 78.5011 90.616 77.3811 89.512C76.2611 88.392 75.7011 86.912 75.7011 85.072C75.7011 83.216 76.2691 81.744 77.4051 80.656C78.5411 79.568 79.9651 79.024 81.6771 79.024C83.4051 79.024 84.8291 79.576 85.9491 80.68C87.0851 81.768 87.6531 83.232 87.6531 85.072C87.6531 86.896 87.0931 88.368 85.9731 89.488ZM77.7171 85.072C77.7171 86.384 78.1011 87.448 78.8691 88.264C79.6371 89.08 80.5731 89.488 81.6771 89.488C82.7971 89.488 83.7411 89.08 84.5091 88.264C85.2771 87.448 85.6611 86.384 85.6611 85.072C85.6611 83.76 85.2691 82.704 84.4851 81.904C83.7171 81.104 82.7891 80.704 81.7011 80.704C80.6131 80.704 79.6771 81.104 78.8931 81.904C78.1091 82.704 77.7171 83.76 77.7171 85.072ZM102.203 91H99.9234C99.2354 91 98.8914 90.664 98.8914 89.992V83.68C98.8914 82.752 98.6674 82.032 98.2194 81.52C97.7714 81.008 97.1154 80.752 96.2514 80.752C95.0194 80.752 94.0594 81.256 93.3714 82.264C93.2914 82.36 93.1874 82.536 93.0594 82.792V89.392H94.3314C94.5394 89.392 94.6434 89.488 94.6434 89.68V90.712C94.6434 90.904 94.5394 91 94.3314 91H89.7474C89.5394 91 89.4354 90.904 89.4354 90.712V89.68C89.4354 89.488 89.5394 89.392 89.7474 89.392H91.0674V80.8H89.7474C89.5394 80.8 89.4354 80.704 89.4354 80.512V79.48C89.4354 79.288 89.5394 79.192 89.7474 79.192H92.5554C92.7634 79.192 92.8674 79.288 92.8674 79.48L92.8194 81.112H92.8914C93.7234 79.72 95.0114 79.024 96.7554 79.024C98.0354 79.024 99.0354 79.4 99.7554 80.152C100.475 80.904 100.843 81.92 100.859 83.2V89.392H102.203C102.411 89.392 102.515 89.488 102.515 89.68V90.712C102.515 90.904 102.411 91 102.203 91Z" fill="white"/>
<defs>
<filter id="filter0_d_41_99" x="3.84009" y="18.92" width="114.286" height="55.4879" filterUnits="userSpaceOnUse" color-interpolation-filters="sRGB">
<feFlood flood-opacity="0" result="BackgroundImageFix"/>
<feColorMatrix in="SourceAlpha" type="matrix" values="0 0 0 0 0 0 0 0 0 0 0 0 0 0 0 0 0 0 127 0" result="hardAlpha"/>
<feOffset dy="8"/>
<feComposite in2="hardAlpha" operator="out"/>
<feColorMatrix type="matrix" values="0 0 0 0 0 0 0 0 0 0 0 0 0 0 0 0 0 0 0.25 0"/>
<feBlend mode="normal" in2="BackgroundImageFix" result="effect1_dropShadow_41_99"/>
<feBlend mode="normal" in="SourceGraphic" in2="effect1_dropShadow_41_99" result="shape"/>
</filter>
</defs>
</svg>
