<svg width="121" height="103" viewBox="0 0 121 103" fill="none" xmlns="http://www.w3.org/2000/svg">
<g filter="url(#filter0_d_41_285)">
<path d="M29.76 32.488C29.76 34.28 29.2267 35.9867 28.16 37.608C27.0933 39.1867 25.728 40.4453 24.064 41.384C26.88 41.9387 29.0347 43.2187 30.528 45.224C32.064 47.2293 32.832 49.704 32.832 52.648C32.832 55.5067 32.0427 57.9173 30.464 59.88C28.8853 61.8 26.7733 63.2507 24.128 64.232C21.5253 65.1707 18.688 65.64 15.616 65.64C12.032 65.64 8.10667 65.32 3.84 64.68V23.016C8.87467 22.6747 12.8853 22.504 15.872 22.504C20.224 22.504 23.616 23.2507 26.048 24.744C28.5227 26.2373 29.76 28.8187 29.76 32.488ZM11.328 40.104C12.3093 40.232 13.3973 40.296 14.592 40.296C17.1093 40.296 18.9867 39.72 20.224 38.568C21.4613 37.416 22.08 35.6027 22.08 33.128C22.08 29.032 19.8613 26.984 15.424 26.984C14.1013 26.984 12.736 27.0907 11.328 27.304V40.104ZM11.328 60.776C12.864 61.032 14.2933 61.16 15.616 61.16C18.6027 61.16 20.8853 60.4773 22.464 59.112C24.0853 57.7467 24.896 55.656 24.896 52.84C24.896 49.64 24.0213 47.4853 22.272 46.376C20.5653 45.224 17.8773 44.648 14.208 44.648C13.056 44.648 12.096 44.712 11.328 44.84V60.776ZM50.1785 36.008C48.3438 36.008 47.1492 37.2453 46.5945 39.72C46.0825 42.152 45.8265 45.0747 45.8265 48.488V65H38.7865V32.36L44.6745 31.592L44.9945 37.352C45.5918 35.432 46.6372 33.9173 48.1305 32.808C49.6238 31.656 51.3518 31.08 53.3145 31.08C55.4478 31.08 57.1332 31.6987 58.3705 32.936C59.6505 34.1733 60.2905 35.8587 60.2905 37.992C60.2905 41.448 58.6265 43.176 55.2985 43.176C54.1892 43.176 53.3358 42.9413 52.7385 42.472C53.0372 41.3627 53.1865 40.4027 53.1865 39.592C53.1865 37.2027 52.1838 36.008 50.1785 36.008ZM67.6205 18.92C69.0285 18.92 70.1592 19.2613 71.0125 19.944C71.9085 20.6267 72.3565 21.608 72.3565 22.888C72.3565 24.2107 71.8872 25.2347 70.9485 25.96C70.0525 26.6427 68.8792 26.984 67.4285 26.984C66.0205 26.984 64.8898 26.6427 64.0365 25.96C63.1832 25.2773 62.7565 24.296 62.7565 23.016C62.7565 21.6933 63.2045 20.6907 64.1005 20.008C65.0392 19.2827 66.2125 18.92 67.6205 18.92ZM70.9485 59.752C70.9485 61.8427 71.6098 63.2507 72.9325 63.976C72.5912 64.616 72.0365 65.1067 71.2685 65.448C70.5005 65.7893 69.6685 65.96 68.7725 65.96C67.1512 65.96 65.9352 65.4907 65.1245 64.552C64.3138 63.6133 63.9085 62.2907 63.9085 60.584V32.36H70.9485V59.752ZM100.27 55.976C101.251 56.4453 101.742 57.3627 101.742 58.728C101.742 60.264 101.23 61.6293 100.206 62.824C99.1815 63.976 97.8588 64.8507 96.2375 65.448C94.6162 66.088 92.9735 66.408 91.3095 66.408C86.6162 66.408 83.1388 64.8933 80.8775 61.864C78.6162 58.792 77.4855 54.6747 77.4855 49.512C77.4855 44.008 78.7015 39.5707 81.1335 36.2C83.6082 32.7867 87.3415 31.08 92.3335 31.08C95.4908 31.08 98.0295 31.912 99.9495 33.576C101.87 35.1973 102.83 37.5013 102.83 40.488C102.83 44.2 101.528 46.8027 98.9255 48.296C96.3655 49.7893 92.8668 50.536 88.4295 50.536C87.1922 50.536 86.0188 50.4933 84.9095 50.408C85.0375 53.7787 85.5922 56.4667 86.5735 58.472C87.5975 60.4773 89.3895 61.48 91.9495 61.48C93.8268 61.48 95.4695 61.0107 96.8775 60.072C98.3282 59.0907 99.4588 57.7253 100.27 55.976ZM91.3095 34.728C89.0055 34.728 87.3842 35.944 86.4455 38.376C85.5068 40.7653 84.9948 43.7093 84.9095 47.208C86.1895 47.2933 87.1282 47.336 87.7255 47.336C93.1015 47.336 95.7895 45.1813 95.7895 40.872C95.7895 39.1227 95.4055 37.672 94.6375 36.52C93.9122 35.3253 92.8028 34.728 91.3095 34.728ZM116.142 19.432V59.752C116.142 61.8427 116.803 63.2507 118.126 63.976C117.785 64.616 117.209 65.1067 116.398 65.448C115.63 65.7893 114.819 65.96 113.966 65.96C112.345 65.96 111.129 65.4907 110.318 64.552C109.507 63.6133 109.102 62.2907 109.102 60.584V20.2L116.142 19.432Z" fill="white"/>
</g>
<path d="M23.088 96H16.464C16.256 96 16.152 95.904 16.152 95.712V94.488C16.152 94.296 16.256 94.2 16.464 94.2H18.288V80.568H16.464C16.256 80.568 16.152 80.472 16.152 80.28V79.056C16.152 78.864 16.256 78.768 16.464 78.768H28.776C28.984 78.768 29.088 78.864 29.088 79.056V82.92C29.088 83.128 28.984 83.232 28.776 83.232H27.48C27.288 83.232 27.192 83.128 27.192 82.92V80.568H20.376V86.52H26.016C26.224 86.52 26.328 86.616 26.328 86.808V88.032C26.328 88.224 26.224 88.32 26.016 88.32H20.376V94.2H23.088C23.28 94.2 23.376 94.296 23.376 94.488V95.712C23.376 95.904 23.28 96 23.088 96ZM40.7741 96H38.6861C37.9981 96 37.6541 95.664 37.6541 94.992V93.768H37.6061C36.4381 95.384 34.8781 96.192 32.9261 96.192C31.7741 96.192 30.8301 95.896 30.0941 95.304C29.3581 94.696 28.9901 93.88 28.9901 92.856C28.9901 91.544 29.5581 90.584 30.6941 89.976C31.8461 89.352 33.4221 89.04 35.4221 89.04H37.4381V88.752C37.4381 86.752 36.3981 85.752 34.3181 85.752C33.3421 85.752 32.6381 85.848 32.2061 86.04C31.7741 86.216 31.4621 86.36 31.2701 86.472C31.0941 86.584 30.9581 86.672 30.8621 86.736C30.6221 86.928 30.4461 86.944 30.3341 86.784L29.6621 85.944C29.5501 85.816 29.5661 85.688 29.7101 85.56C29.9821 85.208 30.5421 84.864 31.3901 84.528C32.2381 84.192 33.2381 84.024 34.3901 84.024C37.7501 84.024 39.4301 85.624 39.4301 88.824V94.392H40.7741C40.9661 94.392 41.0621 94.488 41.0621 94.68V95.712C41.0621 95.904 40.9661 96 40.7741 96ZM37.4381 90.48H35.5421C34.6141 90.48 33.8461 90.528 33.2381 90.624C32.6301 90.72 32.1101 90.928 31.6781 91.248C31.2621 91.568 31.0541 92.008 31.0541 92.568C31.0541 93.128 31.2781 93.592 31.7261 93.96C32.1901 94.312 32.7901 94.488 33.5261 94.488C35.0781 94.488 36.3821 93.8 37.4381 92.424V90.48ZM48.1697 96.168C47.0977 96.168 46.2417 95.968 45.6017 95.568C44.9617 95.168 44.5617 94.792 44.4017 94.44H44.3537C44.3857 95.224 44.4017 95.64 44.4017 95.688C44.4017 95.896 44.2897 96 44.0657 96H43.2497C43.0417 96 42.9377 95.896 42.9377 95.688V92.088C42.9377 91.88 43.0417 91.776 43.2497 91.776H44.1857C44.4097 91.776 44.5217 91.88 44.5217 92.088V92.568C44.6817 93.048 45.0177 93.488 45.5297 93.888C46.1377 94.368 46.8977 94.608 47.8097 94.608C49.6017 94.608 50.4977 93.984 50.4977 92.736C50.4977 92.304 50.2497 91.96 49.7537 91.704C49.2577 91.432 48.6497 91.208 47.9297 91.032C47.2257 90.856 46.5217 90.656 45.8177 90.432C45.1137 90.208 44.5137 89.848 44.0177 89.352C43.5217 88.84 43.2737 88.2 43.2737 87.432C43.2737 86.392 43.6497 85.568 44.4017 84.96C45.1537 84.336 46.1137 84.024 47.2817 84.024C48.8657 84.024 50.0017 84.488 50.6897 85.416H50.7377C50.7057 84.84 50.6897 84.544 50.6897 84.528C50.6897 84.32 50.7937 84.216 51.0017 84.216H51.7697C51.9777 84.216 52.0817 84.32 52.0817 84.528V87.864C52.0817 88.072 51.9777 88.176 51.7697 88.176H50.8337C50.6097 88.176 50.4977 88.072 50.4977 87.864V87.528C50.4977 87.096 50.2417 86.672 49.7297 86.256C49.2337 85.824 48.5857 85.608 47.7857 85.608C46.9857 85.608 46.3617 85.776 45.9137 86.112C45.4657 86.448 45.2417 86.888 45.2417 87.432C45.2417 87.96 45.4897 88.376 45.9857 88.68C46.4977 88.968 47.1137 89.2 47.8337 89.376C48.5537 89.536 49.2737 89.72 49.9937 89.928C50.7137 90.136 51.3217 90.48 51.8177 90.96C52.3297 91.44 52.5857 92.104 52.5857 92.952C52.5857 93.8 52.2177 94.552 51.4817 95.208C50.7617 95.848 49.6577 96.168 48.1697 96.168ZM66.9534 96H64.6734C63.9854 96 63.6414 95.664 63.6414 94.992V88.68C63.6414 87.752 63.4174 87.032 62.9694 86.52C62.5214 86.008 61.8654 85.752 61.0014 85.752C60.3454 85.752 59.8414 85.856 59.4894 86.064C59.1534 86.256 58.8974 86.432 58.7214 86.592C58.5454 86.736 58.4014 86.88 58.2894 87.024C58.0974 87.28 57.9374 87.544 57.8094 87.816V94.392H59.0814C59.2894 94.392 59.3934 94.488 59.3934 94.68V95.712C59.3934 95.904 59.2894 96 59.0814 96H54.4974C54.2894 96 54.1854 95.904 54.1854 95.712V94.68C54.1854 94.488 54.2894 94.392 54.4974 94.392H55.8174V80.376H54.4974C54.2894 80.376 54.1854 80.28 54.1854 80.088V79.056C54.1854 78.864 54.2894 78.768 54.4974 78.768H57.5214C57.7134 78.768 57.8094 78.864 57.8094 79.056V84.408C57.8094 84.936 57.7774 85.424 57.7134 85.872H57.7614C58.5454 84.64 59.7934 84.024 61.5054 84.024C62.7854 84.024 63.7854 84.4 64.5054 85.152C65.2254 85.904 65.5934 86.92 65.6094 88.2V94.392H66.9534C67.1614 94.392 67.2654 94.488 67.2654 94.68V95.712C67.2654 95.904 67.1614 96 66.9534 96ZM73.8471 96H69.2631C69.0551 96 68.9511 95.904 68.9511 95.712V94.68C68.9511 94.488 69.0551 94.392 69.2631 94.392H70.5831V85.8H69.2631C69.0551 85.8 68.9511 85.704 68.9511 85.512V84.48C68.9511 84.288 69.0551 84.192 69.2631 84.192H72.2871C72.4791 84.192 72.5751 84.288 72.5751 84.48V94.392H73.8471C74.0551 94.392 74.1591 94.488 74.1591 94.68V95.712C74.1591 95.904 74.0551 96 73.8471 96ZM72.4791 80.64C72.7511 80.912 72.8871 81.232 72.8871 81.6C72.8871 81.968 72.7511 82.28 72.4791 82.536C72.2231 82.792 71.9111 82.92 71.5431 82.92C71.1751 82.92 70.8551 82.792 70.5831 82.536C70.3271 82.28 70.1991 81.968 70.1991 81.6C70.1991 81.232 70.3271 80.912 70.5831 80.64C70.8551 80.368 71.1751 80.232 71.5431 80.232C71.9111 80.232 72.2231 80.368 72.4791 80.64ZM85.9731 94.488C84.8531 95.608 83.4211 96.168 81.6771 96.168C79.9331 96.168 78.5011 95.616 77.3811 94.512C76.2611 93.392 75.7011 91.912 75.7011 90.072C75.7011 88.216 76.2691 86.744 77.4051 85.656C78.5411 84.568 79.9651 84.024 81.6771 84.024C83.4051 84.024 84.8291 84.576 85.9491 85.68C87.0851 86.768 87.6531 88.232 87.6531 90.072C87.6531 91.896 87.0931 93.368 85.9731 94.488ZM77.7171 90.072C77.7171 91.384 78.1011 92.448 78.8691 93.264C79.6371 94.08 80.5731 94.488 81.6771 94.488C82.7971 94.488 83.7411 94.08 84.5091 93.264C85.2771 92.448 85.6611 91.384 85.6611 90.072C85.6611 88.76 85.2691 87.704 84.4851 86.904C83.7171 86.104 82.7891 85.704 81.7011 85.704C80.6131 85.704 79.6771 86.104 78.8931 86.904C78.1091 87.704 77.7171 88.76 77.7171 90.072ZM102.203 96H99.9234C99.2354 96 98.8914 95.664 98.8914 94.992V88.68C98.8914 87.752 98.6674 87.032 98.2194 86.52C97.7714 86.008 97.1154 85.752 96.2514 85.752C95.0194 85.752 94.0594 86.256 93.3714 87.264C93.2914 87.36 93.1874 87.536 93.0594 87.792V94.392H94.3314C94.5394 94.392 94.6434 94.488 94.6434 94.68V95.712C94.6434 95.904 94.5394 96 94.3314 96H89.7474C89.5394 96 89.4354 95.904 89.4354 95.712V94.68C89.4354 94.488 89.5394 94.392 89.7474 94.392H91.0674V85.8H89.7474C89.5394 85.8 89.4354 85.704 89.4354 85.512V84.48C89.4354 84.288 89.5394 84.192 89.7474 84.192H92.5554C92.7634 84.192 92.8674 84.288 92.8674 84.48L92.8194 86.112H92.8914C93.7234 84.72 95.0114 84.024 96.7554 84.024C98.0354 84.024 99.0354 84.4 99.7554 85.152C100.475 85.904 100.843 86.92 100.859 88.2V94.392H102.203C102.411 94.392 102.515 94.488 102.515 94.68V95.712C102.515 95.904 102.411 96 102.203 96Z" fill="white"/>
<defs>
<filter id="filter0_d_41_285" x="3.84009" y="18.9199" width="114.286" height="55.488" filterUnits="userSpaceOnUse" color-interpolation-filters="sRGB">
<feFlood flood-opacity="0" result="BackgroundImageFix"/>
<feColorMatrix in="SourceAlpha" type="matrix" values="0 0 0 0 0 0 0 0 0 0 0 0 0 0 0 0 0 0 127 0" result="hardAlpha"/>
<feOffset dy="8"/>
<feComposite in2="hardAlpha" operator="out"/>
<feColorMatrix type="matrix" values="0 0 0 0 0 0 0 0 0 0 0 0 0 0 0 0 0 0 0.25 0"/>
<feBlend mode="normal" in2="BackgroundImageFix" result="effect1_dropShadow_41_285"/>
<feBlend mode="normal" in="SourceGraphic" in2="effect1_dropShadow_41_285" result="shape"/>
</filter>
</defs>
</svg>
